<?xml version="1.0" standalone="no"?>
<!DOCTYPE svg PUBLIC "-//W3C//DTD SVG 20010904//EN"
 "http://www.w3.org/TR/2001/REC-SVG-20010904/DTD/svg10.dtd">
<svg version="1.0" xmlns="http://www.w3.org/2000/svg"
 width="1000.000000pt" height="1125.000000pt" viewBox="0 0 1000.000000 1125.000000"
 preserveAspectRatio="xMidYMid meet">

<g transform="translate(0.000000,1125.000000) scale(0.100000,-0.100000)"
fill="#000000" stroke="none">
<path d="M4670 10646 c-368 -140 -525 -215 -676 -322 l-62 -44 2 108 1 107
-32 3 c-35 3 -49 -7 -203 -153 -47 -44 -107 -96 -135 -115 l-50 -35 -118 3
c-189 5 -297 -38 -429 -170 -60 -60 -86 -96 -120 -165 -23 -48 -47 -91 -53
-95 -15 -11 -143 -9 -269 4 -179 18 -203 6 -456 -221 -140 -125 -708 -691
-730 -727 -11 -17 -36 -77 -56 -134 -19 -57 -46 -124 -59 -150 -36 -71 -154
-199 -366 -396 -240 -224 -319 -306 -397 -411 -108 -147 -180 -297 -245 -513
-48 -158 -80 -320 -137 -695 -27 -176 -56 -356 -64 -399 l-16 -79 110 -221
c166 -338 242 -549 301 -841 41 -204 31 -242 -61 -233 l-39 3 -6 -58 c-8 -65
0 -202 17 -287 13 -70 60 -185 273 -665 252 -567 345 -796 434 -1066 31 -94
33 -97 67 -103 45 -9 100 -58 128 -115 13 -25 30 -86 40 -136 55 -290 191
-531 367 -651 136 -92 220 -114 443 -114 214 0 282 -20 402 -120 65 -55 210
-125 309 -151 46 -11 123 -22 180 -24 l100 -3 275 -142 c151 -79 341 -182 422
-231 155 -94 190 -105 223 -69 27 30 35 16 35 -61 0 -57 3 -69 16 -69 9 0 118
12 243 27 200 24 264 27 551 27 351 1 436 -7 642 -60 97 -25 97 -26 174 -9
139 32 274 1 467 -106 100 -56 111 -60 164 -57 67 4 84 21 66 67 -13 36 -2 45
88 79 64 24 284 72 329 72 34 0 83 -39 123 -98 31 -44 74 -78 111 -88 l25 -6
-5 63 c-7 85 12 156 49 183 25 19 42 21 143 20 l114 -1 0 89 c0 49 5 99 12
111 21 41 363 389 424 433 34 24 65 44 70 44 5 0 44 -37 86 -82 l77 -83 1 45
c0 56 -44 153 -89 195 -40 37 -74 91 -66 104 10 18 197 72 247 73 34 0 61 -8
94 -27 l45 -27 -15 31 c-47 90 4 130 181 140 111 7 114 8 148 41 38 37 65 107
65 169 0 31 17 56 121 180 364 436 588 817 820 1395 33 81 58 150 56 152 -9 9
-153 -113 -215 -182 -35 -38 -94 -115 -132 -170 -78 -114 -103 -131 -159 -108
-18 8 -35 14 -37 14 -2 0 -17 -45 -34 -100 -17 -55 -32 -100 -34 -100 -1 0 -1
37 2 82 l5 83 -44 -36 c-167 -135 -727 -559 -979 -740 -353 -256 -826 -574
-905 -610 -81 -37 -146 -20 -188 52 l-23 37 -67 -59 c-98 -85 -155 -80 -145
14 l5 42 -81 0 c-45 0 -87 -4 -95 -9 -7 -5 -22 -28 -32 -52 -11 -24 -24 -46
-29 -49 -5 -3 -21 12 -35 35 -14 22 -29 40 -34 40 -5 0 -15 -39 -22 -87 -11
-77 -14 -84 -21 -56 -15 58 -46 53 -88 -14 l-28 -44 -55 78 c-30 43 -66 89
-81 102 l-26 24 20 -56 c32 -92 23 -140 -19 -96 -24 26 -27 20 -34 -60 -3 -39
-9 -57 -23 -64 -10 -6 -48 -38 -85 -73 l-66 -62 -84 -7 c-132 -10 -333 -41
-462 -70 l-117 -26 -153 35 c-362 83 -647 128 -1031 161 -211 18 -336 42 -476
91 -105 36 -280 119 -383 181 l-58 35 45 28 c49 32 76 73 76 118 0 42 -9 45
-36 12 -26 -30 -78 -51 -177 -70 l-58 -12 -122 119 c-67 65 -284 269 -482 452
-553 514 -997 966 -1102 1121 -50 74 -110 201 -203 430 -103 252 -137 330
-144 330 -4 0 -15 -9 -26 -20 -24 -24 -63 -26 -85 -4 -26 26 -55 91 -55 123 0
73 48 109 102 78 26 -15 28 -15 28 2 0 10 -23 175 -51 367 -33 228 -48 366
-45 398 3 30 27 95 60 165 29 64 57 125 61 136 3 11 37 301 75 645 38 344 78
671 89 728 65 332 199 656 390 944 204 305 388 504 936 1008 200 184 236 212
380 295 55 32 204 120 330 195 516 308 714 406 1000 500 291 94 468 121 870
129 259 5 315 9 340 23 81 44 104 115 97 305 l-2 61 -36 -9 c-51 -15 -91 2
-187 78 -81 64 -129 90 -177 98 -15 3 -119 -31 -270 -89z m-3832 -6429 c12
-13 51 -88 87 -167 35 -78 71 -153 80 -166 22 -34 19 -36 -22 -15 -74 38 -113
99 -113 178 0 18 -18 66 -40 109 -22 43 -40 79 -40 81 0 12 30 -1 48 -20z
m-142 5 c6 -4 19 -32 28 -62 8 -30 23 -77 31 -105 8 -27 11 -45 7 -40 -45 51
-122 155 -122 165 0 14 29 50 39 50 3 0 11 -4 17 -8z"/>
<path d="M6509 10411 c-171 -6 -176 -7 -211 -33 -19 -15 -43 -43 -52 -62 l-16
-35 -35 15 c-42 17 -245 19 -310 3 -53 -13 -122 -70 -141 -116 -21 -48 -17
-129 7 -180 47 -97 221 -221 389 -276 93 -31 243 -57 328 -57 63 0 67 -2 221
-91 332 -194 602 -376 1289 -868 216 -154 405 -284 418 -287 48 -12 115 4 208
49 l93 45 6 -122 c6 -136 26 -217 105 -419 55 -144 105 -215 192 -277 109 -77
148 -118 187 -196 31 -65 36 -85 41 -169 4 -77 0 -114 -18 -189 l-22 -93 52
-102 c102 -199 219 -355 340 -455 l68 -55 4 -66 c4 -67 29 -117 61 -123 9 -2
34 13 56 34 23 20 41 35 41 32 0 -2 -7 -57 -15 -123 -27 -220 -35 -374 -24
-484 5 -57 13 -111 18 -119 5 -8 13 42 20 124 28 313 78 585 149 802 l40 123
-31 -18 c-17 -10 -49 -45 -72 -78 -22 -33 -51 -65 -65 -72 l-25 -12 -7 192
c-10 245 -28 442 -79 845 l-41 323 -485 777 c-267 427 -502 801 -521 830 -48
73 -226 257 -342 354 -324 271 -766 489 -1200 593 -95 22 -347 48 -420 43 -14
-1 -104 -4 -201 -7z"/>
<path d="M5905 7776 c-63 -28 -115 -108 -115 -177 0 -24 -14 -39 -94 -98 -52
-38 -136 -105 -188 -148 -51 -43 -101 -84 -110 -91 -14 -11 -30 -9 -105 17
-173 59 -358 63 -528 10 l-66 -20 -72 29 c-112 47 -175 62 -251 62 -114 -1
-187 -47 -216 -136 -25 -75 6 -250 64 -361 14 -29 14 -34 -1 -70 -78 -183 -81
-435 -7 -620 14 -35 22 -68 18 -75 -4 -6 -45 -57 -92 -112 -187 -224 -312
-420 -312 -491 0 -47 41 -79 90 -70 75 14 236 119 446 291 l112 92 48 -35
c224 -159 548 -197 799 -92 l71 29 55 -19 c159 -56 274 -49 345 23 73 72 82
178 29 337 l-26 78 25 79 c81 257 44 527 -103 742 l-40 59 81 98 c45 54 115
143 155 198 63 85 81 102 120 117 123 46 170 181 100 286 -46 71 -155 102
-232 68z m148 -104 c21 -21 27 -35 27 -70 0 -61 -40 -102 -100 -102 -112 0
-140 151 -36 195 39 17 73 10 109 -23z m-186 -292 c-39 -56 -224 -287 -237
-295 -9 -6 -158 103 -159 116 -1 9 141 128 258 217 l94 71 37 -32 38 -31 -31
-46z m-1355 -130 c37 -11 70 -24 73 -29 3 -5 -14 -20 -37 -34 -62 -36 -165
-133 -215 -201 l-43 -58 -16 38 c-43 102 -48 227 -13 270 40 48 126 53 251 14z
m703 -35 c32 -9 91 -32 130 -50 71 -34 205 -130 212 -152 5 -15 -157 -193
-413 -455 l-192 -198 -48 21 c-55 25 -128 23 -187 -6 -21 -9 -39 -16 -41 -14
-1 2 -32 38 -69 81 -119 138 -267 354 -267 389 0 25 72 123 140 189 104 103
229 171 376 204 86 19 273 15 359 -9z m511 -455 c56 -139 68 -339 29 -485 -25
-94 -88 -213 -152 -290 -74 -89 -189 -178 -220 -170 -37 9 -195 103 -286 170
l-86 64 15 29 c23 48 26 112 6 167 l-17 50 206 215 c113 118 250 264 304 323
l98 108 40 -62 c22 -35 50 -88 63 -119z m-1248 -295 c39 -49 87 -108 106 -130
35 -40 35 -41 21 -80 -19 -53 -19 -116 1 -164 l15 -39 -44 -41 c-24 -22 -57
-51 -72 -63 l-28 -22 -50 54 c-62 70 -140 229 -163 334 -20 95 -15 281 11 364
l16 53 58 -88 c32 -48 90 -128 129 -178z m417 -175 c62 -38 83 -126 45 -188
-75 -123 -260 -76 -260 66 0 24 7 56 15 73 34 66 134 90 200 49z m-522 -376
c20 -23 37 -44 37 -47 0 -8 -228 -190 -310 -248 -86 -61 -157 -102 -170 -97
-24 8 128 229 289 421 l66 79 25 -33 c14 -19 42 -52 63 -75z m1386 62 c15 -59
14 -145 -2 -176 -16 -32 -71 -60 -119 -60 -47 0 -138 21 -138 32 0 4 4 8 9 8
17 0 158 139 192 189 19 28 37 51 40 51 4 0 12 -20 18 -44z m-945 -30 c39 0
73 6 95 17 19 9 38 17 42 17 5 0 48 -29 96 -64 48 -36 120 -84 160 -108 40
-23 73 -46 73 -49 0 -16 -126 -42 -232 -46 -88 -4 -135 -1 -195 12 -76 16
-234 85 -282 123 l-24 19 44 40 c92 85 88 83 127 60 24 -14 53 -21 96 -21z"/>
<path d="M4790 7080 c-24 -24 -24 -29 -4 -58 17 -24 53 -29 72 -10 19 19 15
66 -7 78 -28 14 -38 13 -61 -10z"/>
<path d="M4840 6743 c-49 -17 -74 -76 -54 -128 8 -19 55 -45 84 -45 33 0 80
53 80 89 0 52 -63 100 -110 84z"/>
<path d="M5584 6676 c-10 -26 4 -48 28 -44 17 2 23 10 23 28 0 18 -6 26 -23
28 -13 2 -25 -3 -28 -12z"/>
<path d="M5334 6341 c-77 -47 -100 -122 -62 -198 33 -66 66 -88 136 -88 93 0
155 61 155 151 0 116 -132 194 -229 135z"/>
<path d="M4373 6300 c-48 -19 -36 -90 16 -90 16 0 34 7 41 14 29 36 -13 93
-57 76z"/>
<path d="M4834 5865 c-9 -23 3 -45 26 -45 25 0 37 25 20 45 -16 19 -39 19 -46
0z"/>
<path d="M5921 6994 c-28 -35 -26 -69 4 -99 30 -30 64 -32 99 -4 33 26 36 79
6 109 -30 30 -83 27 -109 -6z"/>
<path d="M3517 5153 c-8 -10 -25 -49 -37 -88 -12 -38 -46 -142 -76 -230 -29
-88 -83 -272 -119 -410 -37 -137 -86 -320 -110 -405 -24 -85 -58 -209 -75
-275 -18 -66 -41 -153 -52 -194 -16 -60 -17 -76 -6 -82 19 -12 42 -11 60 4 22
17 69 178 114 382 20 94 39 173 43 176 3 4 125 8 271 10 l265 4 42 -115 c46
-128 57 -162 104 -333 23 -85 38 -121 52 -129 19 -10 151 -8 162 3 3 3 -8 39
-25 79 -17 40 -58 159 -91 264 -34 105 -97 288 -141 406 -107 289 -181 507
-224 664 -36 131 -78 250 -97 274 -14 17 -41 15 -60 -5z m21 -273 c11 -36 27
-94 37 -130 19 -74 103 -348 141 -459 14 -40 22 -77 17 -82 -6 -6 -349 -14
-420 -10 -18 1 -16 18 17 138 75 274 162 590 167 607 7 26 18 10 41 -64z"/>
<path d="M5924 5145 c-8 -13 -28 -68 -44 -122 -16 -54 -45 -143 -65 -198 -20
-55 -78 -257 -130 -450 -127 -470 -170 -630 -206 -758 -35 -126 -35 -151 1
-155 14 -1 31 1 37 6 18 11 58 148 106 364 23 103 47 191 52 196 15 15 523 22
534 8 12 -15 77 -201 107 -306 61 -211 75 -255 87 -262 16 -11 139 -10 156 1
11 7 6 28 -26 112 -22 57 -62 172 -88 254 -26 83 -87 260 -137 395 -124 339
-172 481 -219 650 -23 80 -54 178 -71 218 -25 61 -34 72 -54 72 -14 0 -30 -10
-40 -25z m15 -222 c6 -16 24 -80 41 -143 17 -63 46 -162 64 -220 91 -283 108
-342 100 -350 -10 -10 -421 -16 -430 -7 -4 3 10 64 29 134 20 70 54 193 76
273 84 306 94 340 101 340 4 0 13 -12 19 -27z"/>
<path d="M2549 5116 c-2 -2 -119 -7 -258 -10 -140 -3 -258 -9 -263 -14 -14
-14 -29 -1595 -14 -1609 7 -7 374 -10 386 -3 10 6 16 218 19 649 l1 154 206
-7 c151 -5 210 -4 220 5 19 16 19 112 -1 129 -11 9 -67 11 -221 8 l-207 -3 5
248 c3 162 9 252 16 259 7 7 102 13 274 17 l263 6 3 73 c2 46 -2 79 -9 88 -9
11 -52 14 -214 14 -111 0 -204 -2 -206 -4z"/>
<path d="M6846 5112 c-66 -1 -125 -7 -131 -12 -12 -10 -9 -129 4 -142 4 -4
181 -9 393 -10 212 -2 389 -6 393 -9 15 -15 -103 -222 -206 -360 -59 -80 -139
-193 -177 -250 -82 -125 -295 -411 -366 -492 l-50 -58 -9 -129 c-10 -147 -7
-175 25 -184 40 -10 1028 -6 1148 5 63 6 117 13 120 16 9 9 11 258 1 272 -7
11 -39 13 -157 10 -302 -8 -759 -4 -777 6 -15 10 0 34 130 210 344 469 686
954 703 999 14 38 13 116 -2 121 -16 5 -880 11 -1042 7z"/>
<path d="M4283 5093 c-17 -6 -16 -36 3 -81 23 -53 280 -807 320 -936 l33 -109
-24 -57 c-33 -78 -155 -424 -155 -438 0 -9 39 -12 140 -12 165 0 158 -6 185
135 11 60 47 165 107 315 50 124 109 277 133 340 24 63 88 230 143 370 114
292 169 456 158 467 -4 4 -60 9 -125 11 -140 4 -139 5 -171 -118 -13 -47 -55
-168 -95 -270 -40 -102 -85 -224 -101 -272 -15 -49 -31 -88 -34 -88 -12 0
-240 683 -240 719 0 10 -7 22 -16 25 -19 7 -243 7 -261 -1z"/>
</g>
</svg>
